<svg width="25" height="19" viewBox="0 0 25 19" fill="none" xmlns="http://www.w3.org/2000/svg">
<path d="M6.37891 18H4.48047V5.78906C4.48047 4.77344 4.51172 3.8125 4.57422 2.90625C4.41016 3.07031 4.22656 3.24219 4.02344 3.42188C3.82031 3.60156 2.89062 4.36328 1.23438 5.70703L0.203125 4.37109L4.73828 0.867188H6.37891V18ZM13.1055 10.6758C13.1055 7.30859 13.7578 4.79297 15.0625 3.12891C16.375 1.45703 18.3125 0.621094 20.875 0.621094C21.7578 0.621094 22.4531 0.695312 22.9609 0.84375V2.51953C22.3594 2.32422 21.6719 2.22656 20.8984 2.22656C19.0625 2.22656 17.6602 2.80078 16.6914 3.94922C15.7227 5.08984 15.1914 6.88672 15.0977 9.33984H15.2383C16.0977 7.99609 17.457 7.32422 19.3164 7.32422C20.8555 7.32422 22.0664 7.78906 22.9492 8.71875C23.8398 9.64844 24.2852 10.9102 24.2852 12.5039C24.2852 14.2852 23.7969 15.6875 22.8203 16.7109C21.8516 17.7266 20.5391 18.2344 18.8828 18.2344C17.1094 18.2344 15.7031 17.5703 14.6641 16.2422C13.625 14.9062 13.1055 13.0508 13.1055 10.6758ZM18.8594 16.582C19.9688 16.582 20.8281 16.2344 21.4375 15.5391C22.0547 14.8359 22.3633 13.8242 22.3633 12.5039C22.3633 11.3711 22.0781 10.4805 21.5078 9.83203C20.9375 9.18359 20.0859 8.85938 18.9531 8.85938C18.25 8.85938 17.6055 9.00391 17.0195 9.29297C16.4336 9.58203 15.9648 9.98047 15.6133 10.4883C15.2695 10.9961 15.0977 11.5234 15.0977 12.0703C15.0977 12.875 15.2539 13.625 15.5664 14.3203C15.8789 15.0156 16.3203 15.5664 16.8906 15.9727C17.4688 16.3789 18.125 16.582 18.8594 16.582Z" fill="#2E2F22"/>
</svg>
